{"title":"Six.Nations.Rugby.Union-France.v.Wales-2013.02.09.720p.x264 ","uid":8124951,"size":2485244670,"categoryP":"video","categoryS":"hd___tv_shows","magnet":"?xt=urn:btih:4ae37e3c51d6881ca11d4dc199bbcbe0bd2664ae&amp;dn=Six.Nations.Rugby.Union-France.v.Wales-2013.02.09.720p.x264+&amp;tr=udp%3A%2F%2Ftracker.openbittorrent.com%3A80&amp;tr=udp%3A%2F%2Fopen.demonii.com%3A1337&amp;tr=udp%3A%2F%2Ftracker.coppersurfer.tk%3A6969&amp;tr=udp%3A%2F%2Fexodus.desync.com%3A6969","seeders":1,"leechers":0,"uploader":"rugbybill","files":2,"time":1360474897,"description":"SPORT: Six Nations Rugby Union - France v Wales\nOn: BBC 1 HD\nDate: Saturday 9th February 2013 \nKO Time: 17:00\n\nLive coverage from Paris, where France are hosting Wales. This clash promises to be one of the highlights of this year's Championship, with last year's Grand Slam winners Wales taking on this year's pre-tournament favourites France. Les Bleus had an excellent autumn campaign but are renowned for their inconsistency, while Wales have had 12 months to forget since their triumph last year. Andrew Cotter and Jonathan Davies are in the commentary box.\n\n\nGeneral\nComplete name: 2013.02.09.6N.France.v.Wales.720p.x264.mp4\nFormat: MPEG-4\nFormat profile: Base Media\nCodec ID: isom\nFile size: 2.31 GiB\nDuration: 1h 40mn\nOverall bit rate mode: Variable\nOverall bit rate: 3 282 Kbps\n\nVideo\nID: 1\nFormat: AVC\nFormat/Info: Advanced Video Codec\nFormat profile: &lt;a class=&quot;__cf_email__&quot; href=&quot;/cdn-cgi/l/email-protection&quot; data-cfemail=&quot;632b0a040b232f574d52&quot;&gt;[email&amp;#160;protected]&lt;/a&gt;&lt;script cf-hash='f9e31' type=&quot;text/javascript&quot;&gt;\n/* &lt;![CDATA[ */!function(){try{var t=&quot;currentScript&quot;in document?document.currentScript:function(){for(var t=document.getElementsByTagName(&quot;script&quot;),e=t.length;e--;)if(t[e].getAttribute(&quot;cf-hash&quot;))return t[e]}();if(t&amp;&amp;t.previousSibling){var e,r,n,i,c=t.previousSibling,a=c.getAttribute(&quot;data-cfemail&quot;);if(a){for(e=&quot;&quot;,r=parseInt(a.substr(0,2),16),n=2;a.length-n;n+=2)i=parseInt(a.substr(n,2),16)^r,e+=String.fromCharCode(i);e=document.createTextNode(e),c.parentNode.replaceChild(e,c)}}}catch(u){}}();/* ]]&gt; */&lt;/script&gt;\nFormat settings, CABAC: Yes\nFormat settings, ReFrames: 5 frames\nCodec ID: avc1\nCodec ID/Info: Advanced Video Coding\nDuration: 1h 40mn\nBit rate: 3 154 Kbps\nMaximum bit rate: 7 557 Kbps\nWidth: 1 280 pixels\nHeight: 720 pixels\nDisplay aspect ratio: 16:9\nFrame rate mode: Constant\nFrame rate: 25.000 fps\nColor space: YUV\nChroma subsampling: 4:2:0\nBit depth: 8 bits\nScan type: Progressive\nBits/(Pixel*Frame): 0.137\nStream size: 2.22 GiB (96%)\nWriting library: x264 core 129 r2245 bc13772\n\nAudio\nID: 2\nFormat: AAC\nFormat/Info: Advanced Audio Codec\nFormat profile: LC\nCodec ID: 40\nDuration: 1h 40mn\nBit rate mode: Variable\nBit rate: 124 Kbps\nMaximum bit rate: 130 Kbps\nChannel(s): 2 channels\nChannel positions: Front: L R\nSampling rate: 48.0 KHz\nCompression mode: Lossy\nDelay relative to video: 80ms\nStream size: 89.5 MiB (4%)\nLanguage: English","torrent":{"xt":"urn:btih:4ae37e3c51d6881ca11d4dc199bbcbe0bd2664ae","amp;dn":"Six.Nations.Rugby.Union-France.v.Wales-2013.02.09.720p.x264+","amp;tr":["udp%3A%2F%2Ftracker.openbittorrent.com%3A80","udp%3A%2F%2Fopen.demonii.com%3A1337","udp%3A%2F%2Ftracker.coppersurfer.tk%3A6969","udp%3A%2F%2Fexodus.desync.com%3A6969"],"infoHash":"4ae37e3c51d6881ca11d4dc199bbcbe0bd2664ae","infoHashBuffer":{"type":"Buffer","data":[74,227,126,60,81,214,136,28,161,29,77,193,153,187,203,224,189,38,100,174]},"announce":[],"urlList":[]}}